# Made in Blockbench 4.12.4
mtllib craft_bench.mtl

o desk
v 5.749999375526116e-7 0.81249991875 0.9999998999999999
v 5.749999375526116e-7 0.81249991875 0
v 2.0000005749999374 0.81249991875 0
v 2.0000005749999374 0.81249991875 0.9999998999999999
v 2.0000005749999374 0.9999998999999999 0.9999998999999999
v 2.0000005749999374 0.9999998999999999 0
v 5.749999375526116e-7 0.9999998999999999 0
v 5.749999375526116e-7 0.9999998999999999 0.9999998999999999
v 0.8750016687513046 0.749999925 0.9999998999999999
v 0.8750016687513046 0.749999925 0.93749990625
v 0.8750016687513046 0.6249999375 0.93749990625
v 0.8750016687513046 0.6249999375 0.9999998999999999
v 1.1250019812516956 0.749999925 0.93749990625
v 1.1250019812516956 0.749999925 0.9999998999999999
v 1.1250019812516956 0.6249999375 0.9999998999999999
v 1.1250019812516956 0.6249999375 0.93749990625
v 1.562502528127379 0.31250121874987496 0.749999925
v 1.562502528127379 0.31250121874987496 0.24999997499999999
v 1.562502528127379 0.187501231249875 0.24999997499999999
v 1.562502528127379 0.187501231249875 0.749999925
v 1.8125028406277688 0.31250121874987496 0.24999997499999999
v 1.8125028406277688 0.31250121874987496 0.749999925
v 1.8125028406277688 0.187501231249875 0.749999925
v 1.8125028406277688 0.187501231249875 0.24999997499999999
v 1.500002450002281 0.43749995625 0.93749990625
v 1.500002450002281 0.43749995625 0.749999925
v 1.500002450002281 0.000001249999875 0.749999925
v 1.500002450002281 0.000001249999875 0.93749990625
v 1.8750029187528674 0.43749995625 0.749999925
v 1.8750029187528674 0.000001249999875 0.749999925
v 1.8750029187528674 0.000001249999875 0.93749990625
v 0.5000012000007186 0.43750120624987504 0.062499993749999996
v 0.5000012000007186 0.43750120624987504 0.24999997499999999
v 0.5000012000007186 0.000001249999875 0.24999997499999999
v 0.5000012000007186 0.000001249999875 0.062499993749999996
v 0.1250007312501329 0.43750120624987504 0.24999997499999999
v 0.1250007312501329 0.000001249999875 0.24999997499999999
v 0.1250007312501329 0.000001249999875 0.062499993749999996
v 1.500002450002281 0.43750120624987504 0.24999997499999999
v 1.500002450002281 0.43750120624987504 0.062499993749999996
v 1.500002450002281 0.000001249999875 0.062499993749999996
v 1.500002450002281 0.000001249999875 0.24999997499999999
v 1.8750029187528674 0.43750120624987504 0.24999997499999999
v 1.8750029187528674 0.000001249999875 0.24999997499999999
v 1.8750029187528674 0.000001249999875 0.062499993749999996
v 0.1250007312501329 0.43749995625 0.749999925
v 0.5000012000007186 0.43749995625 0.749999925
v 0.5000012000007186 0.000001249999875 0.749999925
v 0.1250007312501329 0.000001249999875 0.749999925
v 0.5000012000007186 0.43749995625 0.93749990625
v 0.5000012000007186 0.000001249999875 0.93749990625
v 0.1250007312501329 0.000001249999875 0.93749990625
v 0.1875008093752305 0.31250121874987496 0.749999925
v 0.1875008093752305 0.31250121874987496 0.24999997499999999
v 0.1875008093752305 0.187501231249875 0.24999997499999999
v 0.1875008093752305 0.187501231249875 0.749999925
v 0.43750112187562107 0.31250121874987496 0.24999997499999999
v 0.43750112187562107 0.31250121874987496 0.749999925
v 0.43750112187562107 0.187501231249875 0.749999925
v 0.43750112187562107 0.187501231249875 0.24999997499999999
v 0.1250007312501329 0.81249991875 0.93749990625
v 0.1250007312501329 0.81249991875 0.062499993749999996
v 0.1250007312501329 0.43750120624987504 0.062499993749999996
v 0.1250007312501329 0.43749995625 0.93749990625
v 1.8750029187528674 0.81249991875 0.062499993749999996
v 1.8750029187528674 0.43750120624987504 0.062499993749999996
v 1.8750029187528674 0.81249991875 0.93749990625
v 1.8750029187528674 0.43749995625 0.93749990625
v 0.5000012000007186 0.31250121874987496 0.781249921875
v 1.500002450002281 0.31250121874987496 0.781249921875
v 1.500002450002281 0.187501231249875 0.781249921875
v 0.5000012000007186 0.187501231249875 0.781249921875
v 1.500002450002281 0.31250121874987496 0.906249909375
v 0.5000012000007186 0.31250121874987496 0.906249909375
v 0.5000012000007186 0.187501231249875 0.906249909375
v 1.500002450002281 0.187501231249875 0.906249909375
v 0.5000012000007186 0.31250121874987496 0.093749990625
v 1.500002450002281 0.31250121874987496 0.093749990625
v 1.500002450002281 0.187501231249875 0.093749990625
v 0.5000012000007186 0.187501231249875 0.093749990625
v 1.500002450002281 0.31250121874987496 0.218749978125
v 0.5000012000007186 0.31250121874987496 0.218749978125
v 0.5000012000007186 0.187501231249875 0.218749978125
v 1.500002450002281 0.187501231249875 0.218749978125
vt 0 1
vt 0 0.75
vt 0.25 0.75
vt 0.25 1
vt 0.25 0.484375
vt 0.25 0.734375
vt 0 0.734375
vt 0 0.484375
vt 0.75 0.890625
vt 0.5 0.890625
vt 0.5 0.84375
vt 0.75 0.84375
vt 0.0625 0.25
vt 0.046875 0.25
vt 0.046875 0.21875
vt 0.0625 0.21875
vt 0.09375 0.25
vt 0.078125 0.25
vt 0.078125 0.21875
vt 0.09375 0.21875
vt 0.03125 0.25
vt 0 0.25
vt 0 0.21875
vt 0.03125 0.21875
vt 0.734375 0.53125
vt 0.734375 0.515625
vt 0.765625 0.515625
vt 0.765625 0.53125
vt 0.453125 0.234375
vt 0.453125 0.25
vt 0.421875 0.25
vt 0.421875 0.234375
vt 0.75 0.390625
vt 0.625 0.390625
vt 0.625 0.359375
vt 0.75 0.359375
vt 0.125 0.34375
vt 0 0.34375
vt 0 0.3125
vt 0.125 0.3125
vt 0.140625 0.34375
vt 0.140625 0.21875
vt 0.171875 0.21875
vt 0.171875 0.34375
vt 0.21875 0.21875
vt 0.21875 0.34375
vt 0.1875 0.34375
vt 0.1875 0.21875
vt 0.546875 0.640625
vt 0.5 0.640625
vt 0.5 0.53125
vt 0.546875 0.53125
vt 0.546875 0.515625
vt 0.5 0.515625
vt 0.5 0.40625
vt 0.546875 0.40625
vt 0.421875 0.3125
vt 0.421875 0.265625
vt 0.46875 0.265625
vt 0.46875 0.3125
vt 0.046875 0.46875
vt 0 0.46875
vt 0 0.359375
vt 0.046875 0.359375
vt 0.109375 0.46875
vt 0.0625 0.46875
vt 0.0625 0.359375
vt 0.109375 0.359375
vt 0.734375 0.59375
vt 0.734375 0.546875
vt 0.78125 0.546875
vt 0.78125 0.59375
vt 0.171875 0.46875
vt 0.125 0.46875
vt 0.125 0.359375
vt 0.171875 0.359375
vt 0.234375 0.46875
vt 0.1875 0.46875
vt 0.1875 0.359375
vt 0.234375 0.359375
vt 0.484375 0.265625
vt 0.484375 0.21875
vt 0.53125 0.21875
vt 0.53125 0.265625
vt 0.296875 0.4375
vt 0.25 0.4375
vt 0.25 0.328125
vt 0.296875 0.328125
vt 0.359375 0.4375
vt 0.3125 0.4375
vt 0.3125 0.328125
vt 0.359375 0.328125
vt 0.546875 0.265625
vt 0.546875 0.21875
vt 0.59375 0.21875
vt 0.59375 0.265625
vt 0.75 0.34375
vt 0.625 0.34375
vt 0.625 0.3125
vt 0.75 0.3125
vt 0.359375 0.3125
vt 0.234375 0.3125
vt 0.234375 0.28125
vt 0.359375 0.28125
vt 0.6875 0.640625
vt 0.6875 0.515625
vt 0.71875 0.515625
vt 0.71875 0.640625
vt 0.40625 0.1875
vt 0.40625 0.3125
vt 0.375 0.3125
vt 0.375 0.1875
vt 0.484375 0.765625
vt 0.265625 0.765625
vt 0.265625 0.671875
vt 0.484375 0.671875
vt 0.484375 0.65625
vt 0.265625 0.65625
vt 0.265625 0.5625
vt 0.484375 0.5625
vt 0.484375 0.546875
vt 0.265625 0.546875
vt 0.265625 0.453125
vt 0.484375 0.453125
vt 0.71875 1
vt 0.5 1
vt 0.5 0.90625
vt 0.71875 0.90625
vt 0.484375 0.78125
vt 0.484375 1
vt 0.265625 1
vt 0.265625 0.78125
vt 0.8125 0.5
vt 0.6875 0.5
vt 0.6875 0.46875
vt 0.8125 0.46875
vt 0.8125 0.453125
vt 0.6875 0.453125
vt 0.6875 0.421875
vt 0.8125 0.421875
vt 0 0.296875
vt 0 0.265625
vt 0.125 0.265625
vt 0.125 0.296875
vt 0.75 0.265625
vt 0.75 0.296875
vt 0.625 0.296875
vt 0.625 0.265625
vt 0.859375 1
vt 0.734375 1
vt 0.734375 0.96875
vt 0.859375 0.96875
vt 0.859375 0.953125
vt 0.734375 0.953125
vt 0.734375 0.921875
vt 0.859375 0.921875
vt 0.234375 0.265625
vt 0.234375 0.234375
vt 0.359375 0.234375
vt 0.359375 0.265625
vt 0.859375 0.609375
vt 0.859375 0.640625
vt 0.734375 0.640625
vt 0.734375 0.609375
vt 0.75 0.828125
vt 0.5 0.828125
vt 0.5 0.78125
vt 0.75 0.78125
vt 0.609375 0.640625
vt 0.5625 0.640625
vt 0.5625 0.53125
vt 0.609375 0.53125
vt 0.421875 0.4375
vt 0.375 0.4375
vt 0.375 0.328125
vt 0.421875 0.328125
vt 0.484375 0.4375
vt 0.4375 0.4375
vt 0.4375 0.328125
vt 0.484375 0.328125
vt 0.609375 0.515625
vt 0.5625 0.515625
vt 0.5625 0.40625
vt 0.609375 0.40625
vt 0.546875 0.390625
vt 0.5 0.390625
vt 0.5 0.28125
vt 0.546875 0.28125
vt 0.609375 0.390625
vt 0.5625 0.390625
vt 0.5625 0.28125
vt 0.609375 0.28125
vt 0.671875 0.640625
vt 0.625 0.640625
vt 0.625 0.53125
vt 0.671875 0.53125
vt 0.671875 0.515625
vt 0.625 0.515625
vt 0.625 0.40625
vt 0.671875 0.40625
vt 0.75 0.765625
vt 0.5 0.765625
vt 0.5 0.71875
vt 0.75 0.71875
vt 0.75 0.703125
vt 0.5 0.703125
vt 0.5 0.65625
vt 0.75 0.65625
vn 0 -1 0
vn 0 1 0
vn 0 0 -1
vn -1 0 0
vn 1 0 0
vn 0 0 1
vn 0 -1 0
vn 0 1 0
vn -1 0 0
vn 1 0 0
vn 0 -1 0
vn 0 1 0
vn -1 0 0
vn 0 0 -1
vn 0 -1 0
vn 1 0 0
vn 0 0 1
vn 0 -1 0
vn -1 0 0
vn 0 0 1
vn 0 -1 0
vn 0 0 -1
vn 1 0 0
vn 0 -1 0
vn -1 0 0
vn 1 0 0
vn 0 -1 0
vn 0 1 0
vn -1 0 0
vn 0 0 -1
vn 1 0 0
vn 0 0 1
vn 0 -0.9999999999989796 -0.000001428571428630071
vn 0 0 -1
vn 0 0 1
vn 0 -1 0
vn 0 1 0
vn 0 0 -1
vn 0 0 1
vn 0 -1 0
vn 0 1 0
vn -1 0 0
vn 1 0 0
vn 0 0 1
vn -1 0 0
vn 0 0 -1
vn 0 0 -1
vn 1 0 0
vn -1 0 0
vn 0 0 1
vn 1 0 0
vn 0 0 1
usemtl m_0ea0ce6f-13ec-693c-9cc7-0d6cf9e2d7df
f 1/1/1 2/2/1 3/3/1 4/4/1
f 5/5/2 6/6/2 7/7/2 8/8/2
f 7/9/3 6/10/3 3/11/3 2/12/3
f 9/13/4 10/14/4 11/15/4 12/16/4
f 13/17/5 14/18/5 15/19/5 16/20/5
f 14/21/6 9/22/6 12/23/6 15/24/6
f 12/25/7 11/26/7 16/27/7 15/28/7
f 14/29/8 13/30/8 10/31/8 9/32/8
f 17/33/9 18/34/9 19/35/9 20/36/9
f 21/37/10 22/38/10 23/39/10 24/40/10
f 20/41/11 19/42/11 24/43/11 23/44/11
f 22/45/12 21/46/12 18/47/12 17/48/12
f 25/49/13 26/50/13 27/51/13 28/52/13
f 26/53/14 29/54/14 30/55/14 27/56/14
f 28/57/15 27/58/15 30/59/15 31/60/15
f 32/61/16 33/62/16 34/63/16 35/64/16
f 33/65/17 36/66/17 37/67/17 34/68/17
f 37/69/18 38/70/18 35/71/18 34/72/18
f 39/73/19 40/74/19 41/75/19 42/76/19
f 43/77/20 39/78/20 42/79/20 44/80/20
f 42/81/21 41/82/21 45/83/21 44/84/21
f 46/85/22 47/86/22 48/87/22 49/88/22
f 47/89/23 50/90/23 51/91/23 48/92/23
f 52/93/24 49/94/24 48/95/24 51/96/24
f 53/97/25 54/98/25 55/99/25 56/100/25
f 57/101/26 58/102/26 59/103/26 60/104/26
f 56/105/27 55/106/27 60/107/27 59/108/27
f 58/109/28 57/110/28 54/111/28 53/112/28
f 61/113/29 62/114/29 63/115/29 64/116/29
f 62/117/30 65/118/30 66/119/30 63/120/30
f 65/121/31 67/122/31 68/123/31 66/124/31
f 67/125/32 61/126/32 64/127/32 68/128/32
f 64/129/33 63/130/33 66/131/33 68/132/33
f 69/133/34 70/134/34 71/135/34 72/136/34
f 73/137/35 74/138/35 75/139/35 76/140/35
f 75/141/36 72/142/36 71/143/36 76/144/36
f 73/145/37 70/146/37 69/147/37 74/148/37
f 77/149/38 78/150/38 79/151/38 80/152/38
f 81/153/39 82/154/39 83/155/39 84/156/39
f 83/157/40 80/158/40 79/159/40 84/160/40
f 81/161/41 78/162/41 77/163/41 82/164/41
f 8/165/42 7/166/42 2/167/42 1/168/42
f 29/169/43 68/170/43 31/171/43 30/172/43
f 68/173/44 25/174/44 28/175/44 31/176/44
f 36/177/45 63/178/45 38/179/45 37/180/45
f 63/181/46 32/182/46 35/183/46 38/184/46
f 40/185/47 66/186/47 45/187/47 41/188/47
f 66/189/48 43/190/48 44/191/48 45/192/48
f 64/193/49 46/194/49 49/195/49 52/196/49
f 50/197/50 64/198/50 52/199/50 51/200/50
f 6/201/51 5/202/51 4/203/51 3/204/51
f 5/205/52 8/206/52 1/207/52 4/208/52